<?xml version="1.0" encoding="UTF-8" standalone="no"?><svg xmlns="http://www.w3.org/2000/svg" xmlns:xlink="http://www.w3.org/1999/xlink" contentScriptType="application/ecmascript" contentStyleType="text/css" height="423px" preserveAspectRatio="none" style="width:623px;height:423px;" version="1.1" viewBox="0 0 623 423" width="623px" zoomAndPan="magnify"><defs><filter height="300%" id="fpkbi4tr5bo23" width="300%" x="-1" y="-1"><feGaussianBlur result="blurOut" stdDeviation="2.0"/><feColorMatrix in="blurOut" result="blurOut2" type="matrix" values="0 0 0 0 0 0 0 0 0 0 0 0 0 0 0 0 0 0 .4 0"/><feOffset dx="4.0" dy="4.0" in="blurOut2" result="blurOut3"/><feBlend in="SourceGraphic" in2="blurOut3" mode="normal"/></filter></defs><g><!--MD5=[406b65fecc21e832f7a9b6ebadc6dce1]
cluster Client--><polygon fill="#FFFFFF" filter="url(#fpkbi4tr5bo23)" points="135.5,6,183.5,6,190.5,33.1719,393.5,33.1719,393.5,110,135.5,110,135.5,6" style="stroke:#000000;stroke-width:1.5;"/><line style="stroke:#000000;stroke-width:1.5;" x1="135.5" x2="190.5" y1="33.1719" y2="33.1719"/><text fill="#000000" font-family="sans-serif" font-size="14" font-weight="bold" lengthAdjust="spacing" textLength="42" x="139.5" y="26.2031">Client</text><!--MD5=[979da56a7f83e2393dc758167ae295d0]
cluster Server--><polygon fill="#FFFFFF" filter="url(#fpkbi4tr5bo23)" points="97.5,177,151.5,177,158.5,204.1719,403.5,204.1719,403.5,281,97.5,281,97.5,177" style="stroke:#000000;stroke-width:1.5;"/><line style="stroke:#000000;stroke-width:1.5;" x1="97.5" x2="158.5" y1="204.1719" y2="204.1719"/><text fill="#000000" font-family="sans-serif" font-size="14" font-weight="bold" lengthAdjust="spacing" textLength="48" x="101.5" y="197.2031">Server</text><!--MD5=[81d8de0235fc25315d6963fadf68bdfb]
cluster Rule--><polygon fill="#FFFFFF" filter="url(#fpkbi4tr5bo23)" points="443.5,177,481.5,177,488.5,204.1719,606.5,204.1719,606.5,281,443.5,281,443.5,177" style="stroke:#000000;stroke-width:1.5;"/><line style="stroke:#000000;stroke-width:1.5;" x1="443.5" x2="488.5" y1="204.1719" y2="204.1719"/><text fill="#000000" font-family="sans-serif" font-size="14" font-weight="bold" lengthAdjust="spacing" textLength="32" x="447.5" y="197.2031">Rule</text><!--MD5=[90b4933ae61673e86d54630b91345478]
class OrderForm--><rect codeLine="5" fill="#FEFECE" filter="url(#fpkbi4tr5bo23)" height="32" id="OrderForm" style="stroke:#A80036;stroke-width:1.5;" width="92" x="277.5" y="54"/><ellipse cx="292.5" cy="70" fill="#ADD1B2" rx="11" ry="11" style="stroke:#A80036;stroke-width:1.0;"/><path d="M291.9219,76.3594 Q289.9063,76.3594 288.7188,74.8594 Q287.5313,73.3594 287.5313,70.25 Q287.5313,67.6094 288.7734,65.8359 Q290.0156,64.0625 292.1875,64.0625 Q292.7031,64.0625 293.2344,64.2031 Q293.6563,64.3906 293.9219,64.3906 Q294.125,64.3906 294.2109,64.3516 Q294.2969,64.3125 294.8438,63.5781 L295.6563,67.5625 L294.625,67.875 Q294.1406,66.375 293.5625,65.7891 Q292.9844,65.2031 292.0625,65.2031 Q290.8906,65.2031 290.1875,66.6016 Q289.4844,68 289.4844,70.1719 Q289.4844,72.5625 290.0859,73.8203 Q290.6875,75.0781 292,75.0781 Q292.9219,75.0781 293.5938,74.3984 Q294.2656,73.7188 294.5938,72.1563 L295.6406,72.6406 Q295.2344,74.4063 294.25,75.3828 Q293.2656,76.3594 291.9219,76.3594 Z " fill="#000000"/><text fill="#000000" font-family="sans-serif" font-size="12" lengthAdjust="spacing" textLength="60" x="306.5" y="75.5547">OrderForm</text><!--MD5=[cf4d6237fcae255cd2e1656cf84a30e2]
class Order--><rect codeLine="6" fill="#FEFECE" filter="url(#fpkbi4tr5bo23)" height="32" id="Order" style="stroke:#A80036;stroke-width:1.5;" width="63" x="179" y="54"/><ellipse cx="194" cy="70" fill="#ADD1B2" rx="11" ry="11" style="stroke:#A80036;stroke-width:1.0;"/><path d="M193.4219,76.3594 Q191.4063,76.3594 190.2188,74.8594 Q189.0313,73.3594 189.0313,70.25 Q189.0313,67.6094 190.2734,65.8359 Q191.5156,64.0625 193.6875,64.0625 Q194.2031,64.0625 194.7344,64.2031 Q195.1563,64.3906 195.4219,64.3906 Q195.625,64.3906 195.7109,64.3516 Q195.7969,64.3125 196.3438,63.5781 L197.1563,67.5625 L196.125,67.875 Q195.6406,66.375 195.0625,65.7891 Q194.4844,65.2031 193.5625,65.2031 Q192.3906,65.2031 191.6875,66.6016 Q190.9844,68 190.9844,70.1719 Q190.9844,72.5625 191.5859,73.8203 Q192.1875,75.0781 193.5,75.0781 Q194.4219,75.0781 195.0938,74.3984 Q195.7656,73.7188 196.0938,72.1563 L197.1406,72.6406 Q196.7344,74.4063 195.75,75.3828 Q194.7656,76.3594 193.4219,76.3594 Z " fill="#000000"/><text fill="#000000" font-family="sans-serif" font-size="12" lengthAdjust="spacing" textLength="31" x="208" y="75.5547">Order</text><!--MD5=[837d3612090b426002fd1342fcbe6b88]
class DataBase--><rect codeLine="12" fill="#FEFECE" filter="url(#fpkbi4tr5bo23)" height="32" id="DataBase" style="stroke:#A80036;stroke-width:1.5;" width="86" x="293.5" y="225"/><ellipse cx="308.5" cy="241" fill="#ADD1B2" rx="11" ry="11" style="stroke:#A80036;stroke-width:1.0;"/><path d="M307.9219,247.3594 Q305.9063,247.3594 304.7188,245.8594 Q303.5313,244.3594 303.5313,241.25 Q303.5313,238.6094 304.7734,236.8359 Q306.0156,235.0625 308.1875,235.0625 Q308.7031,235.0625 309.2344,235.2031 Q309.6563,235.3906 309.9219,235.3906 Q310.125,235.3906 310.2109,235.3516 Q310.2969,235.3125 310.8438,234.5781 L311.6563,238.5625 L310.625,238.875 Q310.1406,237.375 309.5625,236.7891 Q308.9844,236.2031 308.0625,236.2031 Q306.8906,236.2031 306.1875,237.6016 Q305.4844,239 305.4844,241.1719 Q305.4844,243.5625 306.0859,244.8203 Q306.6875,246.0781 308,246.0781 Q308.9219,246.0781 309.5938,245.3984 Q310.2656,244.7188 310.5938,243.1563 L311.6406,243.6406 Q311.2344,245.4063 310.25,246.3828 Q309.2656,247.3594 307.9219,247.3594 Z " fill="#000000"/><text fill="#000000" font-family="sans-serif" font-size="12" lengthAdjust="spacing" textLength="54" x="322.5" y="246.5547">DataBase</text><!--MD5=[2eb7ea18886eb38e12ede429776c7573]
class LoggingService--><rect codeLine="13" fill="#FEFECE" filter="url(#fpkbi4tr5bo23)" height="32" id="LoggingService" style="stroke:#A80036;stroke-width:1.5;" width="118" x="140.5" y="225"/><ellipse cx="155.5" cy="241" fill="#ADD1B2" rx="11" ry="11" style="stroke:#A80036;stroke-width:1.0;"/><path d="M154.9219,247.3594 Q152.9063,247.3594 151.7188,245.8594 Q150.5313,244.3594 150.5313,241.25 Q150.5313,238.6094 151.7734,236.8359 Q153.0156,235.0625 155.1875,235.0625 Q155.7031,235.0625 156.2344,235.2031 Q156.6563,235.3906 156.9219,235.3906 Q157.125,235.3906 157.2109,235.3516 Q157.2969,235.3125 157.8438,234.5781 L158.6563,238.5625 L157.625,238.875 Q157.1406,237.375 156.5625,236.7891 Q155.9844,236.2031 155.0625,236.2031 Q153.8906,236.2031 153.1875,237.6016 Q152.4844,239 152.4844,241.1719 Q152.4844,243.5625 153.0859,244.8203 Q153.6875,246.0781 155,246.0781 Q155.9219,246.0781 156.5938,245.3984 Q157.2656,244.7188 157.5938,243.1563 L158.6406,243.6406 Q158.2344,245.4063 157.25,246.3828 Q156.2656,247.3594 154.9219,247.3594 Z " fill="#000000"/><text fill="#000000" font-family="sans-serif" font-size="12" lengthAdjust="spacing" textLength="86" x="169.5" y="246.5547">LoggingService</text><polygon fill="#FFFFFF" filter="url(#fpkbi4tr5bo23)" points="16,354,181,354,188,381.1719,195,381.1719,195,416.3438,16,416.3438,16,354" style="stroke:#000000;stroke-width:1.5;"/><line style="stroke:#000000;stroke-width:1.5;" x1="16" x2="188" y1="381.1719" y2="381.1719"/><text fill="#000000" font-family="sans-serif" font-size="14" font-weight="bold" lengthAdjust="spacing" textLength="159" x="20" y="374.2031">System:Data:SqlClient</text><!--MD5=[710da189d077150810ff2f5e9a1f70d9]
class OrderRules--><rect codeLine="24" fill="#FEFECE" filter="url(#fpkbi4tr5bo23)" height="32" id="OrderRules" style="stroke:#A80036;stroke-width:1.5;" width="95" x="487" y="225"/><ellipse cx="502" cy="241" fill="#ADD1B2" rx="11" ry="11" style="stroke:#A80036;stroke-width:1.0;"/><path d="M501.4219,247.3594 Q499.4063,247.3594 498.2188,245.8594 Q497.0313,244.3594 497.0313,241.25 Q497.0313,238.6094 498.2734,236.8359 Q499.5156,235.0625 501.6875,235.0625 Q502.2031,235.0625 502.7344,235.2031 Q503.1563,235.3906 503.4219,235.3906 Q503.625,235.3906 503.7109,235.3516 Q503.7969,235.3125 504.3438,234.5781 L505.1563,238.5625 L504.125,238.875 Q503.6406,237.375 503.0625,236.7891 Q502.4844,236.2031 501.5625,236.2031 Q500.3906,236.2031 499.6875,237.6016 Q498.9844,239 498.9844,241.1719 Q498.9844,243.5625 499.5859,244.8203 Q500.1875,246.0781 501.5,246.0781 Q502.4219,246.0781 503.0938,245.3984 Q503.7656,244.7188 504.0938,243.1563 L505.1406,243.6406 Q504.7344,245.4063 503.75,246.3828 Q502.7656,247.3594 501.4219,247.3594 Z " fill="#000000"/><text fill="#000000" font-family="sans-serif" font-size="12" lengthAdjust="spacing" textLength="63" x="516" y="246.5547">OrderRules</text><!--MD5=[7bd1f44cd56d22116abde01a801fcb89]
link Client to Server--><path d="M135.4948,106.5962 C135.375,107.1291 135.2543,107.666 135.1327,108.2067 C134.8896,109.2881 134.643,110.3847 134.3933,111.4954 C133.3944,115.9381 132.3449,120.6059 131.2616,125.4237 C129.0952,135.0594 126.7938,145.295 124.4925,155.53 C123.3419,160.6475 122.1913,165.7648 121.0576,170.807 C120.7742,172.0675 120.4919,173.3233 120.2108,174.5733 C120.0703,175.1982 119.9301,175.8217 119.7903,176.4436 C119.7553,176.5991 119.7204,176.7545 119.6855,176.9097 " fill="none" id="Client-to-Server" style="stroke:#A80036;stroke-width:1.0;stroke-dasharray:7.0,7.0;"/><polygon fill="#A80036" points="119.6855,176.9097,125.5623,169.0064,120.7823,172.0315,117.7572,167.2515,119.6855,176.9097" style="stroke:#A80036;stroke-width:1.0;"/><text fill="#000000" font-family="sans-serif" font-size="13" lengthAdjust="spacing" textLength="35" x="130.5" y="149.8906">«use»</text><!--MD5=[565b96014e850cee5e6f04e02ad06505]
link Server to System:Data:SqlClient--><path d="M105.5,281.487 C105.5,281.6525 105.5,281.8183 105.5,281.9844 C105.5,282.3166 105.5,282.6499 105.5,282.9843 C105.5,283.6532 105.5,284.3264 105.5,285.0036 C105.5,286.358 105.5,287.7287 105.5,289.113 C105.5,291.8817 105.5,294.7053 105.5,297.564 C105.5,303.2813 105.5,309.139 105.5,314.9789 C105.5,326.6588 105.5,338.2675 105.5,348.54 " fill="none" id="Server-to-System:Data:SqlClient" style="stroke:#A80036;stroke-width:1.0;stroke-dasharray:7.0,7.0;"/><polygon fill="#A80036" points="105.5,353.68,109.5,344.68,105.5,348.68,101.5,344.68,105.5,353.68" style="stroke:#A80036;stroke-width:1.0;"/><text fill="#000000" font-family="sans-serif" font-size="13" lengthAdjust="spacing" textLength="35" x="106.5" y="320.8906">«use»</text><!--MD5=[e6d6ceef76d47b3f52b2141cfbb2d2df]
link Client to Rule--><path d="M151.0284,110.1772 C151.0691,110.2671 151.1099,110.357 151.151,110.4468 C151.2333,110.6263 151.3163,110.8055 151.4003,110.9842 C154.0875,116.7038 157.685,121.995 162.5,126 C202.76,159.47 350.91,133.56 395.5,161 C413.255,171.925 426.9475,190.8025 436.3475,207.365 C438.6975,211.5056 440.7792,215.5016 442.5891,219.1924 C442.8153,219.6537 443.0373,220.1103 443.255,220.5618 C443.3094,220.6747 443.3636,220.7873 443.4175,220.8995 " fill="none" id="Client-to-Rule" style="stroke:#A80036;stroke-width:1.0;stroke-dasharray:7.0,7.0;"/><polygon fill="#A80036" points="443.4175,220.8995,443.1271,211.0549,441.253,216.3923,435.9156,214.5182,443.4175,220.8995" style="stroke:#A80036;stroke-width:1.0;"/><text fill="#000000" font-family="sans-serif" font-size="13" lengthAdjust="spacing" textLength="50" x="371.5" y="149.8906">«import»</text><!--MD5=[a7f1a7dae4e798dc87976d8e8f788c1b]
@startuml packageGraph

package Client
{
    hide empty members
    class OrderForm{}
    class Order
}

package Server
{
    hide empty members
    class DataBase
    class LoggingService
}

package System:Data:SqlClient
{

}

package Rule
{
    hide empty members
    class OrderRules
}

Client ..> Server : <<use>>
Server ..>"System:Data:SqlClient":<<use>>
Client ..>Rule:<<import>>

@enduml

PlantUML version 1.2021.00(Sun Jan 10 18:25:05 CST 2021)
(GPL source distribution)
Java Runtime: OpenJDK Runtime Environment
JVM: OpenJDK Client VM
Default Encoding: GBK
Language: zh
Country: CN
--></g></svg>