<?xml version="1.0" encoding="UTF-8" standalone="no"?><svg xmlns="http://www.w3.org/2000/svg" xmlns:xlink="http://www.w3.org/1999/xlink" contentScriptType="application/ecmascript" contentStyleType="text/css" height="300px" preserveAspectRatio="none" style="width:360px;height:300px;" version="1.1" viewBox="0 0 360 300" width="360px" zoomAndPan="magnify"><defs><filter height="300%" id="f1wkbi21m5bcjg" width="300%" x="-1" y="-1"><feGaussianBlur result="blurOut" stdDeviation="2.0"/><feColorMatrix in="blurOut" result="blurOut2" type="matrix" values="0 0 0 0 0 0 0 0 0 0 0 0 0 0 0 0 0 0 .4 0"/><feOffset dx="4.0" dy="4.0" in="blurOut2" result="blurOut3"/><feBlend in="SourceGraphic" in2="blurOut3" mode="normal"/></filter></defs><g><ellipse cx="57.8741" cy="124.5466" fill="#FEFECE" filter="url(#f1wkbi21m5bcjg)" rx="51.8741" ry="16.5466" style="stroke:#A80036;stroke-width:1.5;"/><text fill="#000000" font-family="sans-serif" font-size="14" lengthAdjust="spacing" textLength="57" x="27.3525" y="129.5913">Usecase</text><ellipse cx="290.7468" cy="22.5978" fill="#FEFECE" filter="url(#f1wkbi21m5bcjg)" rx="57.7468" ry="16.5978" style="stroke:#A80036;stroke-width:1.5;"/><text fill="#000000" font-family="sans-serif" font-size="14" lengthAdjust="spacing" textLength="65" x="255.2468" y="27.8713">Usecase2</text><ellipse cx="290.7468" cy="90.5978" fill="#FEFECE" filter="url(#f1wkbi21m5bcjg)" rx="57.7468" ry="16.5978" style="stroke:#A80036;stroke-width:1.5;"/><text fill="#000000" font-family="sans-serif" font-size="14" lengthAdjust="spacing" textLength="65" x="255.2468" y="95.8713">Usecase3</text><ellipse cx="290.4831" cy="158.604" fill="#FEFECE" filter="url(#f1wkbi21m5bcjg)" rx="58.4831" ry="16.604" style="stroke:#A80036;stroke-width:1.5;"/><text fill="#000000" font-family="sans-serif" font-size="14" lengthAdjust="spacing" textLength="66" x="254.4831" y="163.8775">Usecase4</text><!--MD5=[785617a40335b4b3f4a4f9c464842b0b]
entity person--><ellipse cx="290.5" cy="220" fill="#FEFECE" filter="url(#f1wkbi21m5bcjg)" rx="8" ry="8" style="stroke:#A80036;stroke-width:1.5;"/><path d="M290.5,228 L290.5,255 M277.5,236 L303.5,236 M290.5,255 L277.5,270 M290.5,255 L303.5,270 " fill="none" filter="url(#f1wkbi21m5bcjg)" style="stroke:#A80036;stroke-width:1.5;"/><text fill="#000000" font-family="sans-serif" font-size="14" lengthAdjust="spacing" textLength="46" x="267.5" y="291.5469">person</text><!--MD5=[a12dfbfdb86b944470f8f50adb6902be]
link Usecase to person--><path d="M84.99,138.93 C130.68,164.3 224.56,216.44 267.36,240.21 " fill="none" id="Usecase-person" style="stroke:#A80036;stroke-width:1.0;"/><!--MD5=[26bb06db62744b6322df5f2780797386]
link Usecase to Usecase2--><path d="M81.42,109.66 C97.34,99.51 119.45,86.19 140,76.5 C169.22,62.71 202.99,50.24 231.02,40.77 " fill="none" id="Usecase-to-Usecase2" style="stroke:#A80036;stroke-width:1.0;"/><polygon fill="none" points="229.1,34.03,250.28,34.42,233.48,47.33,229.1,34.03" style="stroke:#A80036;stroke-width:1.0;"/><!--MD5=[2201eb0d5ddd5701ffca1b3f92f7ffe4]
link Usecase to Usecase3--><path d="M105.37,117.66 C142.36,112.2 194.3,104.54 233.59,98.75 " fill="none" id="Usecase-to-Usecase3" style="stroke:#A80036;stroke-width:1.0;stroke-dasharray:7.0,7.0;"/><polygon fill="#A80036" points="238.8,97.98,229.3129,95.3352,233.8534,98.7091,230.4795,103.2497,238.8,97.98" style="stroke:#A80036;stroke-width:1.0;"/><text fill="#000000" font-family="sans-serif" font-size="13" lengthAdjust="spacing" textLength="56" x="143" y="100.3906">«include»</text><!--MD5=[42d07bff1c408a332a5b000d6e746d90]
link Usecase to Usecase4--><path d="M101.77,133.57 C114.08,136.01 127.54,138.52 140,140.5 C169.53,145.19 202.52,149.28 229.98,152.37 " fill="none" id="Usecase-to-Usecase4" style="stroke:#A80036;stroke-width:1.0;stroke-dasharray:7.0,7.0;"/><polygon fill="#A80036" points="235.04,152.94,226.5274,147.9867,230.0695,152.3972,225.659,155.9394,235.04,152.94" style="stroke:#A80036;stroke-width:1.0;"/><text fill="#000000" font-family="sans-serif" font-size="13" lengthAdjust="spacing" textLength="60" x="141" y="137.3906">«extends»</text><!--MD5=[8a9652adaaef7467c0bf2c9eeadd9d4a]
@startuml usecaseRelationship


(Usecase)
(Usecase2)
(Usecase3)
(Usecase4)
actor person

left to right direction

Usecase - - person
Usecase - -|>Usecase2
Usecase ..> Usecase3:<<include>>
Usecase ..> Usecase4:<<extends>>

@enduml

PlantUML version 1.2021.00(Sun Jan 10 18:25:05 CST 2021)
(GPL source distribution)
Java Runtime: OpenJDK Runtime Environment
JVM: OpenJDK Client VM
Default Encoding: GBK
Language: zh
Country: CN
--></g></svg>