<?xml version="1.0" encoding="UTF-8" standalone="no"?><svg xmlns="http://www.w3.org/2000/svg" xmlns:xlink="http://www.w3.org/1999/xlink" contentScriptType="application/ecmascript" contentStyleType="text/css" height="231px" preserveAspectRatio="none" style="width:157px;height:231px;" version="1.1" viewBox="0 0 157 231" width="157px" zoomAndPan="magnify"><defs><filter height="300%" id="feh7ktasgwgf2" width="300%" x="-1" y="-1"><feGaussianBlur result="blurOut" stdDeviation="2.0"/><feColorMatrix in="blurOut" result="blurOut2" type="matrix" values="0 0 0 0 0 0 0 0 0 0 0 0 0 0 0 0 0 0 .4 0"/><feOffset dx="4.0" dy="4.0" in="blurOut2" result="blurOut3"/><feBlend in="SourceGraphic" in2="blurOut3" mode="normal"/></filter></defs><g><line style="stroke:#A80036;stroke-width:1.5;" x1="76" x2="76" y1="76.875" y2="164.625"/><polygon fill="#A80036" points="72,86.875,76,76.875,80,86.875,76,82.875" style="stroke:#A80036;stroke-width:1.0;"/><polygon fill="#A80036" points="72,154.625,76,164.625,80,154.625,76,158.625" style="stroke:#A80036;stroke-width:1.0;"/><text fill="#000000" font-family="sans-serif" font-size="13" lengthAdjust="spacing" textLength="38" x="80" y="126.7656">5 分钟</text><line style="stroke:#A80036;stroke-width:1.0;stroke-dasharray:5.0,5.0;" x1="38" x2="38" y1="43.125" y2="184.625"/><line style="stroke:#A80036;stroke-width:1.0;stroke-dasharray:5.0,5.0;" x1="114" x2="114" y1="43.125" y2="184.625"/><rect fill="#FEFECE" filter="url(#feh7ktasgwgf2)" height="33.125" style="stroke:#A80036;stroke-width:1.5;" width="62" x="5" y="5"/><text fill="#000000" font-family="sans-serif" font-size="14" lengthAdjust="spacing" textLength="48" x="12" y="28.0469">object1</text><rect fill="#FEFECE" filter="url(#feh7ktasgwgf2)" height="33.125" style="stroke:#A80036;stroke-width:1.5;" width="62" x="81" y="5"/><text fill="#000000" font-family="sans-serif" font-size="14" lengthAdjust="spacing" textLength="48" x="88" y="28.0469">object2</text><rect fill="#FEFECE" filter="url(#feh7ktasgwgf2)" height="33.125" style="stroke:#A80036;stroke-width:1.5;" width="62" x="5" y="184.625"/><text fill="#000000" font-family="sans-serif" font-size="14" lengthAdjust="spacing" textLength="48" x="12" y="207.6719">object1</text><rect fill="#FEFECE" filter="url(#feh7ktasgwgf2)" height="33.125" style="stroke:#A80036;stroke-width:1.5;" width="62" x="81" y="184.625"/><text fill="#000000" font-family="sans-serif" font-size="14" lengthAdjust="spacing" textLength="48" x="88" y="207.6719">object2</text><polygon fill="#A80036" points="102,70.875,112,74.875,102,78.875,106,74.875" style="stroke:#A80036;stroke-width:1.0;"/><line style="stroke:#A80036;stroke-width:1.0;" x1="38" x2="108" y1="74.875" y2="74.875"/><text fill="#000000" font-family="sans-serif" font-size="13" lengthAdjust="spacing" textLength="52" x="45" y="70.0156">认证请求</text><polygon fill="#A80036" points="49,162.625,39,166.625,49,170.625,45,166.625" style="stroke:#A80036;stroke-width:1.0;"/><line style="stroke:#A80036;stroke-width:1.0;stroke-dasharray:2.0,2.0;" x1="43" x2="113" y1="166.625" y2="166.625"/><text fill="#000000" font-family="sans-serif" font-size="13" lengthAdjust="spacing" textLength="52" x="55" y="161.7656">退出认证</text><line style="stroke:#A80036;stroke-width:1.5;" x1="76" x2="76" y1="76.875" y2="164.625"/><polygon fill="#A80036" points="72,86.875,76,76.875,80,86.875,76,82.875" style="stroke:#A80036;stroke-width:1.0;"/><polygon fill="#A80036" points="72,154.625,76,164.625,80,154.625,76,158.625" style="stroke:#A80036;stroke-width:1.0;"/><text fill="#000000" font-family="sans-serif" font-size="13" lengthAdjust="spacing" textLength="38" x="80" y="126.7656">5 分钟</text><!--MD5=[327dc1c16edfaf4e8c9af17599b0ea74]
@startuml Continued
!pragma teoz true
{start} object1 -> object2: 认证请求
||60||
{end} object2 - -> object1: 退出认证

{start} <-> {end} : 5 分钟

@enduml

PlantUML version 1.2021.00(Sun Jan 10 18:25:05 CST 2021)
(GPL source distribution)
Java Runtime: OpenJDK Runtime Environment
JVM: OpenJDK Client VM
Default Encoding: GBK
Language: zh
Country: CN
--></g></svg>