<?xml version="1.0" encoding="UTF-8" standalone="no"?><svg xmlns="http://www.w3.org/2000/svg" xmlns:xlink="http://www.w3.org/1999/xlink" contentScriptType="application/ecmascript" contentStyleType="text/css" height="275px" preserveAspectRatio="none" style="width:157px;height:275px;" version="1.1" viewBox="0 0 157 275" width="157px" zoomAndPan="magnify"><defs><filter height="300%" id="fqxgothpqgftr" width="300%" x="-1" y="-1"><feGaussianBlur result="blurOut" stdDeviation="2.0"/><feColorMatrix in="blurOut" result="blurOut2" type="matrix" values="0 0 0 0 0 0 0 0 0 0 0 0 0 0 0 0 0 0 .4 0"/><feOffset dx="4.0" dy="4.0" in="blurOut2" result="blurOut3"/><feBlend in="SourceGraphic" in2="blurOut3" mode="normal"/></filter></defs><g><line style="stroke:#A80036;stroke-width:1.0;" x1="38" x2="38" y1="43.125" y2="84.875"/><line style="stroke:#A80036;stroke-width:1.0;stroke-dasharray:1.0,4.0;" x1="38" x2="38" y1="84.875" y2="112.875"/><line style="stroke:#A80036;stroke-width:1.0;" x1="38" x2="38" y1="112.875" y2="144.625"/><line style="stroke:#A80036;stroke-width:1.0;stroke-dasharray:1.0,4.0;" x1="38" x2="38" y1="144.625" y2="187.6563"/><line style="stroke:#A80036;stroke-width:1.0;" x1="38" x2="38" y1="187.6563" y2="229.4063"/><line style="stroke:#A80036;stroke-width:1.0;" x1="114" x2="114" y1="43.125" y2="84.875"/><line style="stroke:#A80036;stroke-width:1.0;stroke-dasharray:1.0,4.0;" x1="114" x2="114" y1="84.875" y2="112.875"/><line style="stroke:#A80036;stroke-width:1.0;" x1="114" x2="114" y1="112.875" y2="144.625"/><line style="stroke:#A80036;stroke-width:1.0;stroke-dasharray:1.0,4.0;" x1="114" x2="114" y1="144.625" y2="187.6563"/><line style="stroke:#A80036;stroke-width:1.0;" x1="114" x2="114" y1="187.6563" y2="229.4063"/><rect fill="#FEFECE" filter="url(#fqxgothpqgftr)" height="33.125" style="stroke:#A80036;stroke-width:1.5;" width="62" x="5" y="5"/><text fill="#000000" font-family="sans-serif" font-size="14" lengthAdjust="spacing" textLength="48" x="12" y="28.0469">object1</text><rect fill="#FEFECE" filter="url(#fqxgothpqgftr)" height="33.125" style="stroke:#A80036;stroke-width:1.5;" width="62" x="5" y="228.4063"/><text fill="#000000" font-family="sans-serif" font-size="14" lengthAdjust="spacing" textLength="48" x="12" y="251.4531">object1</text><rect fill="#FEFECE" filter="url(#fqxgothpqgftr)" height="33.125" style="stroke:#A80036;stroke-width:1.5;" width="62" x="81" y="5"/><text fill="#000000" font-family="sans-serif" font-size="14" lengthAdjust="spacing" textLength="48" x="88" y="28.0469">object2</text><rect fill="#FEFECE" filter="url(#fqxgothpqgftr)" height="33.125" style="stroke:#A80036;stroke-width:1.5;" width="62" x="81" y="228.4063"/><text fill="#000000" font-family="sans-serif" font-size="14" lengthAdjust="spacing" textLength="48" x="88" y="251.4531">object2</text><polygon fill="#A80036" points="102,72.875,112,76.875,102,80.875,106,76.875" style="stroke:#A80036;stroke-width:1.0;"/><line style="stroke:#A80036;stroke-width:1.0;" x1="38" x2="108" y1="76.875" y2="76.875"/><text fill="#000000" font-family="sans-serif" font-size="13" lengthAdjust="spacing" textLength="52" x="45" y="72.0156">认证请求</text><polygon fill="#A80036" points="49,132.625,39,136.625,49,140.625,45,136.625" style="stroke:#A80036;stroke-width:1.0;"/><line style="stroke:#A80036;stroke-width:1.0;stroke-dasharray:2.0,2.0;" x1="43" x2="113" y1="136.625" y2="136.625"/><text fill="#000000" font-family="sans-serif" font-size="13" lengthAdjust="spacing" textLength="52" x="55" y="131.7656">认证响应</text><text fill="#000000" font-family="sans-serif" font-size="11" lengthAdjust="spacing" textLength="40" x="56" y="171.2344">5分钟后</text><polygon fill="#A80036" points="49,207.4063,39,211.4063,49,215.4063,45,211.4063" style="stroke:#A80036;stroke-width:1.0;"/><line style="stroke:#A80036;stroke-width:1.0;stroke-dasharray:2.0,2.0;" x1="43" x2="113" y1="211.4063" y2="211.4063"/><text fill="#000000" font-family="sans-serif" font-size="13" lengthAdjust="spacing" textLength="52" x="55" y="206.5469">退出认证</text><!--MD5=[cb39c841944437e563da7f15529ac675]
@startuml Delay

object1 -> object2: 认证请求
...
object2 - -> object1: 认证响应
...5分钟后...
object2 - -> object1: 退出认证

@enduml

PlantUML version 1.2021.00(Sun Jan 10 18:25:05 CST 2021)
(GPL source distribution)
Java Runtime: OpenJDK Runtime Environment
JVM: OpenJDK Client VM
Default Encoding: GBK
Language: zh
Country: CN
--></g></svg>