<?xml version="1.0" encoding="UTF-8" standalone="no"?><svg xmlns="http://www.w3.org/2000/svg" xmlns:xlink="http://www.w3.org/1999/xlink" contentScriptType="application/ecmascript" contentStyleType="text/css" height="255px" preserveAspectRatio="none" style="width:235px;height:255px;" version="1.1" viewBox="0 0 235 255" width="235px" zoomAndPan="magnify"><defs><filter height="300%" id="frnij4e0stsxs" width="300%" x="-1" y="-1"><feGaussianBlur result="blurOut" stdDeviation="2.0"/><feColorMatrix in="blurOut" result="blurOut2" type="matrix" values="0 0 0 0 0 0 0 0 0 0 0 0 0 0 0 0 0 0 .4 0"/><feOffset dx="4.0" dy="4.0" in="blurOut2" result="blurOut3"/><feBlend in="SourceGraphic" in2="blurOut3" mode="normal"/></filter></defs><g><!--MD5=[75ea3bd801f35bf9c6563570d027214a]
cluster state--><rect fill="#FEFECE" filter="url(#frnij4e0stsxs)" height="180" rx="12.5" ry="12.5" style="stroke:#A80036;stroke-width:1.5;" width="145" x="42" y="44.7031"/><rect fill="#FFFFFF" height="144.875" rx="12.5" ry="12.5" style="stroke:#FFFFFF;stroke-width:1.0;" width="139" x="45" y="76.8281"/><line style="stroke:#A80036;stroke-width:1.5;" x1="42" x2="187" y1="73.8281" y2="73.8281"/><text fill="#000000" font-family="sans-serif" font-size="14" lengthAdjust="spacing" textLength="34" x="97.5" y="65.75">state</text><text fill="#000000" font-family="sans-serif" font-size="14" lengthAdjust="spacing" textLength="41" x="129.5" y="23.625">entry1</text><ellipse cx="150" cy="44.7031" fill="#FEFECE" rx="6" ry="6" style="stroke:#A80036;stroke-width:1.5;"/><text fill="#000000" font-family="sans-serif" font-size="14" lengthAdjust="spacing" textLength="41" x="82.5" y="23.625">entry2</text><ellipse cx="103" cy="44.7031" fill="#FEFECE" rx="6" ry="6" style="stroke:#A80036;stroke-width:1.5;"/><text fill="#000000" font-family="sans-serif" font-size="14" lengthAdjust="spacing" textLength="31" x="112.5" y="246.75">exit1</text><ellipse cx="128" cy="224.7031" fill="#FEFECE" rx="6" ry="6" style="stroke:#A80036;stroke-width:1.5;"/><line style="stroke:#A80036;stroke-width:1.5;" x1="132.3891" x2="124.6109" y1="229.0922" y2="221.314"/><line style="stroke:#A80036;stroke-width:1.5;" x1="132.3891" x2="124.6109" y1="221.314" y2="229.0922"/><rect fill="#FEFECE" filter="url(#frnij4e0stsxs)" height="40" rx="12.5" ry="12.5" style="stroke:#A80036;stroke-width:1.5;" width="69" x="93.5" y="114.7031"/><text fill="#000000" font-family="sans-serif" font-size="14" lengthAdjust="spacing" textLength="59" x="98.5" y="141.1875">subState</text><ellipse cx="16" cy="44.7031" fill="#000000" filter="url(#frnij4e0stsxs)" rx="10" ry="10" style="stroke:none;stroke-width:1.0;"/><ellipse cx="213" cy="224.7031" fill="none" filter="url(#frnij4e0stsxs)" rx="10" ry="10" style="stroke:#000000;stroke-width:1.0;"/><ellipse cx="213.5" cy="225.2031" fill="#000000" rx="6" ry="6" style="stroke:none;stroke-width:1.0;"/><!--MD5=[938ab6c230f924c0e02f5a6eda511264]
link entry1 to subState--><path d="M148.75,50.6831 C145.97,61.8131 139.1,89.3031 134.02,109.6131 " fill="none" id="entry1-to-subState" style="stroke:#A80036;stroke-width:1.0;"/><polygon fill="#A80036" points="132.77,114.6131,138.8388,106.8562,133.986,109.7633,131.079,104.9105,132.77,114.6131" style="stroke:#A80036;stroke-width:1.0;"/><!--MD5=[953681569e7de47fafa0c78a52b8c460]
link entry2 to subState--><path d="M104.42,50.6831 C107.58,61.8131 115.39,89.3031 121.16,109.6131 " fill="none" id="entry2-to-subState" style="stroke:#A80036;stroke-width:1.0;"/><polygon fill="#A80036" points="122.58,114.6131,123.9536,104.8605,121.2064,109.8055,116.2614,107.0583,122.58,114.6131" style="stroke:#A80036;stroke-width:1.0;"/><!--MD5=[717ac93ebcd892baee240c61d42d5c3e]
link subState to exit1--><path d="M128,154.7931 C128,172.8231 128,199.1731 128,213.5031 " fill="none" id="subState-to-exit1" style="stroke:#A80036;stroke-width:1.0;"/><polygon fill="#A80036" points="128,218.5231,132,209.5231,128,213.5231,124,209.5231,128,218.5231" style="stroke:#A80036;stroke-width:1.0;"/><!--MD5=[00ad59dafe6a236f25e260c5ab684aea]
link *start to state--><path d="M20.03,54.1431 C22.575,59.4781 26.1144,66.8956 30.0172,75.0739 C31.9686,79.163 34.0109,83.4424 36.0651,87.7467 C37.0922,89.8989 38.1224,92.0573 39.1456,94.2013 C39.6573,95.2733 40.1672,96.3417 40.6742,97.4039 C40.9276,97.935 41.1804,98.4645 41.4323,98.9922 C41.5582,99.2561 41.6839,99.5195 41.8094,99.7823 C41.8721,99.9138 41.9348,100.0451 41.9974,100.1762 " fill="none" id="*start-to-state" style="stroke:#A80036;stroke-width:1.0;"/><polygon fill="#A80036" points="41.9974,100.1762,41.7306,90.331,39.8437,95.6639,34.5108,93.7769,41.9974,100.1762" style="stroke:#A80036;stroke-width:1.0;"/><!--MD5=[554e84488fcd7e4bd96c10588a900607]
link state to *end--><path d="M187.3826,211.5786 C187.5729,211.6519 187.7635,211.7258 187.9546,211.8001 C188.7187,212.0973 189.4889,212.4026 190.2653,212.7164 C191.8182,213.344 193.3959,214.0053 195,214.7031 C196.54,215.3731 198.13,216.1031 199.71,216.8631 " fill="none" id="state-to-*end" style="stroke:#A80036;stroke-width:1.0;"/><polygon fill="#A80036" points="204.3,219.1231,198.0003,211.5526,199.8165,216.9099,194.4591,218.7262,204.3,219.1231" style="stroke:#A80036;stroke-width:1.0;"/><!--MD5=[da2ccdf8c473ea945500d66f277a9bc4]
@startuml EntryExit

hide empty description

state state{
    state entry1 <<entryPoint>>
    state entry2 <<entryPoint>>
    state exit1 <<exitPoint>>
    state subState

    entry1- ->subState
    entry2- ->subState
    subState- ->exit1
}

[*]- ->state
state- ->[*]

@enduml

PlantUML version 1.2021.00(Sun Jan 10 18:25:05 CST 2021)
(GPL source distribution)
Java Runtime: OpenJDK Runtime Environment
JVM: OpenJDK Client VM
Default Encoding: GBK
Language: zh
Country: CN
--></g></svg>