<?xml version="1.0" encoding="UTF-8" standalone="no"?><svg xmlns="http://www.w3.org/2000/svg" xmlns:xlink="http://www.w3.org/1999/xlink" contentScriptType="application/ecmascript" contentStyleType="text/css" height="477px" preserveAspectRatio="none" style="width:253px;height:477px;" version="1.1" viewBox="0 0 253 477" width="253px" zoomAndPan="magnify"><defs><filter height="300%" id="f6u6sgs32im0v" width="300%" x="-1" y="-1"><feGaussianBlur result="blurOut" stdDeviation="2.0"/><feColorMatrix in="blurOut" result="blurOut2" type="matrix" values="0 0 0 0 0 0 0 0 0 0 0 0 0 0 0 0 0 0 .4 0"/><feOffset dx="4.0" dy="4.0" in="blurOut2" result="blurOut3"/><feBlend in="SourceGraphic" in2="blurOut3" mode="normal"/></filter></defs><g><rect fill="#FFFFFF" filter="url(#f6u6sgs32im0v)" height="322.0156" style="stroke:#000000;stroke-width:2.0;" width="229" x="10" y="91.875"/><rect fill="#FFFFFF" height="217.5" style="stroke:none;stroke-width:1.0;" width="229" x="10" y="146.375"/><rect fill="#FFFFFF" filter="url(#f6u6sgs32im0v)" height="153.4844" style="stroke:#000000;stroke-width:2.0;" width="209" x="20" y="203.3906"/><rect fill="#FFFFFF" filter="url(#f6u6sgs32im0v)" height="54.5" style="stroke:#000000;stroke-width:2.0;" width="147" x="30" y="263.625"/><rect fill="#FFFFFF" height="50.0156" style="stroke:none;stroke-width:1.0;" width="229" x="10" y="363.875"/><line style="stroke:#A80036;stroke-width:1.0;stroke-dasharray:5.0,5.0;" x1="64" x2="64" y1="43.125" y2="430.8906"/><line style="stroke:#A80036;stroke-width:1.0;stroke-dasharray:5.0,5.0;" x1="145" x2="145" y1="43.125" y2="430.8906"/><line style="stroke:#A80036;stroke-width:1.0;stroke-dasharray:5.0,5.0;" x1="198" x2="198" y1="43.125" y2="430.8906"/><rect fill="#FEFECE" filter="url(#f6u6sgs32im0v)" height="33.125" style="stroke:#A80036;stroke-width:1.5;" width="44" x="40" y="5"/><text fill="#000000" font-family="sans-serif" font-size="14" lengthAdjust="spacing" textLength="30" x="47" y="28.0469">Alice</text><rect fill="#FEFECE" filter="url(#f6u6sgs32im0v)" height="33.125" style="stroke:#A80036;stroke-width:1.5;" width="44" x="40" y="429.8906"/><text fill="#000000" font-family="sans-serif" font-size="14" lengthAdjust="spacing" textLength="30" x="47" y="452.9375">Alice</text><rect fill="#FEFECE" filter="url(#f6u6sgs32im0v)" height="33.125" style="stroke:#A80036;stroke-width:1.5;" width="40" x="123" y="5"/><text fill="#000000" font-family="sans-serif" font-size="14" lengthAdjust="spacing" textLength="26" x="130" y="28.0469">Bob</text><rect fill="#FEFECE" filter="url(#f6u6sgs32im0v)" height="33.125" style="stroke:#A80036;stroke-width:1.5;" width="40" x="123" y="429.8906"/><text fill="#000000" font-family="sans-serif" font-size="14" lengthAdjust="spacing" textLength="26" x="130" y="452.9375">Bob</text><rect fill="#FEFECE" filter="url(#f6u6sgs32im0v)" height="33.125" style="stroke:#A80036;stroke-width:1.5;" width="38" x="177" y="5"/><text fill="#000000" font-family="sans-serif" font-size="14" lengthAdjust="spacing" textLength="24" x="184" y="28.0469">Log</text><rect fill="#FEFECE" filter="url(#f6u6sgs32im0v)" height="33.125" style="stroke:#A80036;stroke-width:1.5;" width="38" x="177" y="429.8906"/><text fill="#000000" font-family="sans-serif" font-size="14" lengthAdjust="spacing" textLength="24" x="184" y="452.9375">Log</text><polygon fill="#A80036" points="133,72.875,143,76.875,133,80.875,137,76.875" style="stroke:#A80036;stroke-width:1.0;"/><line style="stroke:#A80036;stroke-width:1.0;" x1="64" x2="139" y1="76.875" y2="76.875"/><text fill="#000000" font-family="sans-serif" font-size="13" lengthAdjust="spacing" textLength="52" x="71" y="72.0156">认证请求</text><path d="M10,91.875 L73,91.875 L73,102.875 L63,112.875 L10,112.875 L10,91.875 " fill="#EEEEEE" style="stroke:#000000;stroke-width:1.0;"/><rect fill="none" height="322.0156" style="stroke:#000000;stroke-width:2.0;" width="229" x="10" y="91.875"/><text fill="#000000" font-family="sans-serif" font-size="13" font-weight="bold" lengthAdjust="spacing" textLength="18" x="25" y="109.6094">alt</text><text fill="#000000" font-family="sans-serif" font-size="11" font-weight="bold" lengthAdjust="spacing" textLength="55" x="88" y="107.7969">[成功情况]</text><polygon fill="#A80036" points="75,134.375,65,138.375,75,142.375,71,138.375" style="stroke:#A80036;stroke-width:1.0;"/><line style="stroke:#A80036;stroke-width:1.0;" x1="69" x2="144" y1="138.375" y2="138.375"/><text fill="#000000" font-family="sans-serif" font-size="13" lengthAdjust="spacing" textLength="52" x="81" y="133.5156">认证接受</text><line style="stroke:#000000;stroke-width:1.0;stroke-dasharray:2.0,2.0;" x1="10" x2="239" y1="147.375" y2="147.375"/><text fill="#000000" font-family="sans-serif" font-size="11" font-weight="bold" lengthAdjust="spacing" textLength="79" x="15" y="161.2969">[某种失败情况]</text><polygon fill="#A80036" points="75,184.3906,65,188.3906,75,192.3906,71,188.3906" style="stroke:#A80036;stroke-width:1.0;"/><line style="stroke:#A80036;stroke-width:1.0;" x1="69" x2="144" y1="188.3906" y2="188.3906"/><text fill="#000000" font-family="sans-serif" font-size="13" lengthAdjust="spacing" textLength="52" x="81" y="183.5313">认证失败</text><path d="M20,203.3906 L123,203.3906 L123,214.3906 L113,224.3906 L20,224.3906 L20,203.3906 " fill="#EEEEEE" style="stroke:#000000;stroke-width:1.0;"/><rect fill="none" height="153.4844" style="stroke:#000000;stroke-width:2.0;" width="209" x="20" y="203.3906"/><text fill="#000000" font-family="sans-serif" font-size="13" font-weight="bold" lengthAdjust="spacing" textLength="58" x="35" y="221.125">mygroup</text><polygon fill="#A80036" points="186,244.625,196,248.625,186,252.625,190,248.625" style="stroke:#A80036;stroke-width:1.0;"/><line style="stroke:#A80036;stroke-width:1.0;" x1="64" x2="192" y1="248.625" y2="248.625"/><text fill="#000000" font-family="sans-serif" font-size="13" lengthAdjust="spacing" textLength="104" x="71" y="243.7656">开始记录攻击日志</text><path d="M30,263.625 L105,263.625 L105,274.625 L95,284.625 L30,284.625 L30,263.625 " fill="#EEEEEE" style="stroke:#000000;stroke-width:1.0;"/><rect fill="none" height="54.5" style="stroke:#000000;stroke-width:2.0;" width="147" x="30" y="263.625"/><text fill="#000000" font-family="sans-serif" font-size="13" font-weight="bold" lengthAdjust="spacing" textLength="30" x="45" y="281.3594">loop</text><text fill="#000000" font-family="sans-serif" font-size="11" font-weight="bold" lengthAdjust="spacing" textLength="46" x="120" y="279.5469">[1000次]</text><polygon fill="#A80036" points="133,306.125,143,310.125,133,314.125,137,310.125" style="stroke:#A80036;stroke-width:1.0;"/><line style="stroke:#A80036;stroke-width:1.0;" x1="64" x2="139" y1="310.125" y2="310.125"/><text fill="#000000" font-family="sans-serif" font-size="13" lengthAdjust="spacing" textLength="57" x="71" y="305.2656">DNS 攻击</text><polygon fill="#A80036" points="186,344.875,196,348.875,186,352.875,190,348.875" style="stroke:#A80036;stroke-width:1.0;"/><line style="stroke:#A80036;stroke-width:1.0;" x1="64" x2="192" y1="348.875" y2="348.875"/><text fill="#000000" font-family="sans-serif" font-size="13" lengthAdjust="spacing" textLength="104" x="71" y="344.0156">结束记录攻击日志</text><line style="stroke:#000000;stroke-width:1.0;stroke-dasharray:2.0,2.0;" x1="10" x2="239" y1="364.875" y2="364.875"/><text fill="#000000" font-family="sans-serif" font-size="11" font-weight="bold" lengthAdjust="spacing" textLength="67" x="15" y="378.7969">[另一种失败]</text><polygon fill="#A80036" points="75,401.8906,65,405.8906,75,409.8906,71,405.8906" style="stroke:#A80036;stroke-width:1.0;"/><line style="stroke:#A80036;stroke-width:1.0;" x1="69" x2="144" y1="405.8906" y2="405.8906"/><text fill="#000000" font-family="sans-serif" font-size="13" lengthAdjust="spacing" textLength="39" x="81" y="401.0313">请重复</text><!--MD5=[4793f2664c6ffd26e542fb211cebc253]
@startuml group
Alice -> Bob: 认证请求

alt 成功情况

    Bob -> Alice: 认证接受

else 某种失败情况

    Bob -> Alice: 认证失败
    group mygroup
    Alice -> Log : 开始记录攻击日志
        loop 1000次
            Alice -> Bob: DNS 攻击
        end
    Alice -> Log : 结束记录攻击日志
    end

else 另一种失败

   Bob -> Alice: 请重复

end
@enduml

PlantUML version 1.2021.00(Sun Jan 10 18:25:05 CST 2021)
(GPL source distribution)
Java Runtime: OpenJDK Runtime Environment
JVM: OpenJDK Client VM
Default Encoding: GBK
Language: zh
Country: CN
--></g></svg>