<?xml version="1.0" encoding="UTF-8" standalone="no"?><svg xmlns="http://www.w3.org/2000/svg" xmlns:xlink="http://www.w3.org/1999/xlink" contentScriptType="application/ecmascript" contentStyleType="text/css" height="506px" preserveAspectRatio="none" style="width:207px;height:506px;" version="1.1" viewBox="0 0 207 506" width="207px" zoomAndPan="magnify"><defs><filter height="300%" id="f171zwyz9r0ngp" width="300%" x="-1" y="-1"><feGaussianBlur result="blurOut" stdDeviation="2.0"/><feColorMatrix in="blurOut" result="blurOut2" type="matrix" values="0 0 0 0 0 0 0 0 0 0 0 0 0 0 0 0 0 0 .4 0"/><feOffset dx="4.0" dy="4.0" in="blurOut2" result="blurOut3"/><feBlend in="SourceGraphic" in2="blurOut3" mode="normal"/></filter></defs><g><!--MD5=[03472fb3032f535afaab07093b20aeb3]
cluster state2--><rect fill="#FEFECE" filter="url(#f171zwyz9r0ngp)" height="294" rx="12.5" ry="12.5" style="stroke:#A80036;stroke-width:1.5;" width="144" x="7" y="200"/><rect fill="#FFFFFF" height="258.875" rx="12.5" ry="12.5" style="stroke:#FFFFFF;stroke-width:1.0;" width="138" x="10" y="232.125"/><line style="stroke:#A80036;stroke-width:1.5;" x1="7" x2="151" y1="229.125" y2="229.125"/><text fill="#000000" font-family="sans-serif" font-size="14" lengthAdjust="spacing" textLength="42" x="58" y="220.0469">state2</text><rect fill="#FEFECE" filter="url(#f171zwyz9r0ngp)" height="40" rx="12.5" ry="12.5" style="stroke:#A80036;stroke-width:1.5;" width="77" x="31.5" y="329"/><text fill="#000000" font-family="sans-serif" font-size="14" lengthAdjust="spacing" textLength="67" x="36.5" y="355.4844">subState1</text><rect fill="#FEFECE" filter="url(#f171zwyz9r0ngp)" height="40" rx="12.5" ry="12.5" style="stroke:#A80036;stroke-width:1.5;" width="77" x="31.5" y="430"/><text fill="#000000" font-family="sans-serif" font-size="14" lengthAdjust="spacing" textLength="67" x="36.5" y="456.4844">subState2</text><ellipse cx="98" cy="257" fill="#000000" filter="url(#f171zwyz9r0ngp)" rx="10" ry="10" style="stroke:none;stroke-width:1.0;"/><ellipse cx="42" cy="257" fill="#FEFECE" filter="url(#f171zwyz9r0ngp)" rx="11" ry="11" style="stroke:#A80036;stroke-width:1.5;"/><text fill="#000000" font-family="sans-serif" font-size="14" lengthAdjust="spacing" textLength="10" x="37" y="263.4844">H</text><rect fill="#FEFECE" filter="url(#f171zwyz9r0ngp)" height="40" rx="12.5" ry="12.5" style="stroke:#A80036;stroke-width:1.5;" width="52" x="84" y="87"/><text fill="#000000" font-family="sans-serif" font-size="14" lengthAdjust="spacing" textLength="42" x="89" y="113.4844">state1</text><ellipse cx="110" cy="16" fill="#000000" filter="url(#f171zwyz9r0ngp)" rx="10" ry="10" style="stroke:none;stroke-width:1.0;"/><ellipse cx="185" cy="349" fill="none" filter="url(#f171zwyz9r0ngp)" rx="10" ry="10" style="stroke:#000000;stroke-width:1.0;"/><ellipse cx="185.5" cy="349.5" fill="#000000" rx="6" ry="6" style="stroke:none;stroke-width:1.0;"/><!--MD5=[299be3ced08078163490b208611661a8]
link *start*state2 to subState1--><path d="M95.21,266.96 C91.14,280.04 83.42,304.87 77.59,323.61 " fill="none" id="*start*state2-to-subState1" style="stroke:#A80036;stroke-width:1.0;"/><polygon fill="#A80036" points="76,328.72,82.4885,321.3106,77.4824,323.9448,74.8483,318.9387,76,328.72" style="stroke:#A80036;stroke-width:1.0;"/><!--MD5=[b6e4300d929564ecdbce3bc5a094d0b3]
link subState1 to subState2--><path d="M70,369.09 C70,384.98 70,407.69 70,424.84 " fill="none" id="subState1-to-subState2" style="stroke:#A80036;stroke-width:1.0;"/><polygon fill="#A80036" points="70,429.97,74,420.97,70,424.97,66,420.97,70,429.97" style="stroke:#A80036;stroke-width:1.0;"/><!--MD5=[9f09441df0a44e35ca891aba02ce8e72]
link state1 to *historical*state2--><path d="M89.75,127.45 C81.97,135.89 73.62,146.28 68,157 C53.54,184.6 46.69,220.83 43.81,240.93 " fill="none" id="state1-to-*historical*state2" style="stroke:#A80036;stroke-width:1.0;"/><polygon fill="#A80036" points="43.13,245.91,48.3018,237.5283,43.8011,240.9552,40.3742,236.4546,43.13,245.91" style="stroke:#A80036;stroke-width:1.0;"/><text fill="#000000" font-family="sans-serif" font-size="13" lengthAdjust="spacing" textLength="43" x="69" y="172.8906">resume</text><!--MD5=[f868e2d08dd9946760ca6ea59e8d7f06]
link *start to state1--><path d="M110,26.19 C110,39.18 110,63.38 110,81.73 " fill="none" id="*start-to-state1" style="stroke:#A80036;stroke-width:1.0;"/><polygon fill="#A80036" points="110,86.74,114,77.74,110,81.74,106,77.74,110,86.74" style="stroke:#A80036;stroke-width:1.0;"/><!--MD5=[e8ab5236574affaea70cdd313057216c]
link state1 to state2--><path d="M114.25,127.05 C116.4425,136.885 119.2969,149.6888 122.3547,163.4045 C123.8836,170.2624 125.4634,177.3483 127.0367,184.4051 C127.8233,187.9335 128.6084,191.4547 129.3847,194.9364 C129.5787,195.8068 129.7723,196.6748 129.9651,197.5398 C130.0615,197.9723 130.1578,198.4041 130.2539,198.835 C130.3019,199.0505 130.3499,199.2658 130.3979,199.4809 " fill="none" id="state1-to-state2" style="stroke:#A80036;stroke-width:1.0;"/><polygon fill="#A80036" points="130.3979,199.4809,132.3435,189.8261,129.3098,194.6007,124.5352,191.567,130.3979,199.4809" style="stroke:#A80036;stroke-width:1.0;"/><!--MD5=[e471d88ab690d0fb63b98bd8dbe16611]
link state2 to state1--><path d="M137.3236,199.7266 C137.2263,199.0561 137.1275,198.3836 137.0272,197.7094 C136.6258,195.0122 136.1998,192.2862 135.7478,189.5466 C133.94,178.5881 131.7175,167.4125 129,157 C126.83,148.67 123.67,139.81 120.55,131.96 " fill="none" id="state2-to-state1" style="stroke:#A80036;stroke-width:1.0;"/><polygon fill="#A80036" points="118.63,127.21,118.2952,137.0532,120.5042,131.8454,125.7119,134.0544,118.63,127.21" style="stroke:#A80036;stroke-width:1.0;"/><text fill="#000000" font-family="sans-serif" font-size="13" lengthAdjust="spacing" textLength="37" x="134" y="172.8906">pause</text><!--MD5=[a61a7bd66d5618f1f8d1a3bc06d89d85]
link state2 to *end--><path d="M151.0233,275.191 C151.0724,275.2963 151.1217,275.4019 151.1712,275.5078 C151.3689,275.9316 151.5692,276.3606 151.7718,276.7946 C153.3924,280.2666 155.1622,284.0581 157.0138,288.025 C164.42,303.8925 173.135,322.565 178.85,334.81 " fill="none" id="state2-to-*end" style="stroke:#A80036;stroke-width:1.0;"/><polygon fill="#A80036" points="181.09,339.62,180.9071,329.7728,178.9748,335.0894,173.6582,333.1572,181.09,339.62" style="stroke:#A80036;stroke-width:1.0;"/><!--MD5=[aab6490e8cd16360b8dbffdf1e83f235]
@startuml History

hide empty description

state state1
state state2{
    state subState1
    state subState2

    [*]- ->subState1
    subState1- ->subState2
    state1- ->[H] :resume

}

[*]- ->state1
state1- ->state2
state2- ->state1 :pause
state2- ->[*]

@enduml

PlantUML version 1.2021.00(Sun Jan 10 18:25:05 CST 2021)
(GPL source distribution)
Java Runtime: OpenJDK Runtime Environment
JVM: OpenJDK Client VM
Default Encoding: GBK
Language: zh
Country: CN
--></g></svg>