<?xml version="1.0" encoding="UTF-8" standalone="no"?><svg xmlns="http://www.w3.org/2000/svg" xmlns:xlink="http://www.w3.org/1999/xlink" contentScriptType="application/ecmascript" contentStyleType="text/css" height="374px" preserveAspectRatio="none" style="width:243px;height:374px;background:#FFFFFF;" version="1.1" viewBox="0 0 243 374" width="243px" zoomAndPan="magnify"><defs><filter height="300%" id="fds60zjn2ocad" width="300%" x="-1" y="-1"><feGaussianBlur result="blurOut" stdDeviation="2.0"/><feColorMatrix in="blurOut" result="blurOut2" type="matrix" values="0 0 0 0 0 0 0 0 0 0 0 0 0 0 0 0 0 0 .4 0"/><feOffset dx="4.0" dy="4.0" in="blurOut2" result="blurOut3"/><feBlend in="SourceGraphic" in2="blurOut3" mode="normal"/></filter></defs><g><!--MD5=[e6f955026f95a25accb184d80cb741ec]
class student--><rect codeLine="2" fill="#FEFECE" filter="url(#fds60zjn2ocad)" height="70.0459" id="student" style="stroke:#A80036;stroke-width:1.5;" width="56" x="135" y="7"/><ellipse cx="150" cy="23" fill="#ADD1B2" rx="11" ry="11" style="stroke:#A80036;stroke-width:1.0;"/><path d="M146.5313,17.2813 L146.5313,16.875 L154.0469,16.875 L154.7656,19.1406 L153.5938,19.5938 Q152.9063,18.2656 152.3125,17.7734 Q151.7188,17.2813 150.9844,17.2813 L149.125,17.2813 Q149.125,17.2813 149.2578,17.4141 Q149.3906,17.5469 149.3906,17.8125 L149.3906,21.9219 L150.4531,21.9219 Q151.1094,21.9219 151.4141,21.5938 Q151.7188,21.2656 151.7188,20.5938 L151.7188,20.2031 L153.1094,20.2031 L153.1094,24.1094 L151.7188,24.1094 L151.7188,23.8438 Q151.7188,23.125 151.4141,22.7266 Q151.1094,22.3281 150.4531,22.3281 L149.5313,22.3281 L149.5313,27.2969 Q149.5313,27.5625 149.6953,27.6953 Q149.8594,27.8281 149.8594,27.8281 L150.8438,27.8281 Q151.8438,27.8281 152.5391,27.2656 Q153.2344,26.7031 153.75,25.1875 L154.9688,25.6406 L154.2344,28.2344 L146.4688,28.2344 L146.4688,27.8281 L146.8594,27.8281 Q147.2031,27.8281 147.3359,27.6953 Q147.4688,27.5625 147.4688,27.2969 L147.4688,17.8125 Q147.4688,17.5469 147.3359,17.4141 Q147.2031,17.2813 146.8594,17.2813 L146.5313,17.2813 Z " fill="#000000"/><text fill="#000000" font-family="sans-serif" font-size="12" lengthAdjust="spacing" textLength="24" x="164" y="28.5576">学生</text><line style="stroke:#A80036;stroke-width:1.5;" x1="136" x2="190" y1="39" y2="39"/><text fill="#000000" font-family="sans-serif" font-size="11" font-weight="bold" lengthAdjust="spacing" textLength="28" x="141" y="55.606">stuId</text><text fill="#000000" font-family="sans-serif" font-size="11" lengthAdjust="spacing" textLength="42" x="141" y="70.6289">stuName</text><!--MD5=[81c5ae8e289c1591a1fa869afb43f1e1]
class postgraduate--><rect codeLine="7" fill="#FEFECE" filter="url(#fds60zjn2ocad)" height="70.0459" id="postgraduate" style="stroke:#A80036;stroke-width:1.5;" width="68" x="58" y="156"/><ellipse cx="73" cy="172" fill="#ADD1B2" rx="11" ry="11" style="stroke:#A80036;stroke-width:1.0;"/><path d="M69.5313,166.2813 L69.5313,165.875 L77.0469,165.875 L77.7656,168.1406 L76.5938,168.5938 Q75.9063,167.2656 75.3125,166.7734 Q74.7188,166.2813 73.9844,166.2813 L72.125,166.2813 Q72.125,166.2813 72.2578,166.4141 Q72.3906,166.5469 72.3906,166.8125 L72.3906,170.9219 L73.4531,170.9219 Q74.1094,170.9219 74.4141,170.5938 Q74.7188,170.2656 74.7188,169.5938 L74.7188,169.2031 L76.1094,169.2031 L76.1094,173.1094 L74.7188,173.1094 L74.7188,172.8438 Q74.7188,172.125 74.4141,171.7266 Q74.1094,171.3281 73.4531,171.3281 L72.5313,171.3281 L72.5313,176.2969 Q72.5313,176.5625 72.6953,176.6953 Q72.8594,176.8281 72.8594,176.8281 L73.8438,176.8281 Q74.8438,176.8281 75.5391,176.2656 Q76.2344,175.7031 76.75,174.1875 L77.9688,174.6406 L77.2344,177.2344 L69.4688,177.2344 L69.4688,176.8281 L69.8594,176.8281 Q70.2031,176.8281 70.3359,176.6953 Q70.4688,176.5625 70.4688,176.2969 L70.4688,166.8125 Q70.4688,166.5469 70.3359,166.4141 Q70.2031,166.2813 69.8594,166.2813 L69.5313,166.2813 Z " fill="#000000"/><text fill="#000000" font-family="sans-serif" font-size="12" lengthAdjust="spacing" textLength="36" x="87" y="177.5576">研究生</text><line style="stroke:#A80036;stroke-width:1.5;" x1="59" x2="125" y1="188" y2="188"/><text fill="#000000" font-family="sans-serif" font-size="11" lengthAdjust="spacing" textLength="28" x="64" y="204.606">group</text><text fill="#000000" font-family="sans-serif" font-size="11" lengthAdjust="spacing" textLength="37" x="64" y="219.6289">teacher</text><!--MD5=[046bbd55b66f22b8428bcb8d34a2131b]
class master--><rect codeLine="12" fill="#FEFECE" filter="url(#fds60zjn2ocad)" height="55.0229" id="master" style="stroke:#A80036;stroke-width:1.5;" width="68" x="7" y="305"/><ellipse cx="22" cy="321" fill="#ADD1B2" rx="11" ry="11" style="stroke:#A80036;stroke-width:1.0;"/><path d="M18.5313,315.2813 L18.5313,314.875 L26.0469,314.875 L26.7656,317.1406 L25.5938,317.5938 Q24.9063,316.2656 24.3125,315.7734 Q23.7188,315.2813 22.9844,315.2813 L21.125,315.2813 Q21.125,315.2813 21.2578,315.4141 Q21.3906,315.5469 21.3906,315.8125 L21.3906,319.9219 L22.4531,319.9219 Q23.1094,319.9219 23.4141,319.5938 Q23.7188,319.2656 23.7188,318.5938 L23.7188,318.2031 L25.1094,318.2031 L25.1094,322.1094 L23.7188,322.1094 L23.7188,321.8438 Q23.7188,321.125 23.4141,320.7266 Q23.1094,320.3281 22.4531,320.3281 L21.5313,320.3281 L21.5313,325.2969 Q21.5313,325.5625 21.6953,325.6953 Q21.8594,325.8281 21.8594,325.8281 L22.8438,325.8281 Q23.8438,325.8281 24.5391,325.2656 Q25.2344,324.7031 25.75,323.1875 L26.9688,323.6406 L26.2344,326.2344 L18.4688,326.2344 L18.4688,325.8281 L18.8594,325.8281 Q19.2031,325.8281 19.3359,325.6953 Q19.4688,325.5625 19.4688,325.2969 L19.4688,315.8125 Q19.4688,315.5469 19.3359,315.4141 Q19.2031,315.2813 18.8594,315.2813 L18.5313,315.2813 Z " fill="#000000"/><text fill="#000000" font-family="sans-serif" font-size="12" lengthAdjust="spacing" textLength="36" x="36" y="326.5576">硕士生</text><line style="stroke:#A80036;stroke-width:1.5;" x1="8" x2="74" y1="337" y2="337"/><text fill="#000000" font-family="sans-serif" font-size="11" lengthAdjust="spacing" textLength="21" x="13" y="353.606">type</text><!--MD5=[cd75315c45c882d2d0490b0a5c31348c]
class phd--><rect codeLine="16" fill="#FEFECE" filter="url(#fds60zjn2ocad)" height="55.0229" id="phd" style="stroke:#A80036;stroke-width:1.5;" width="68" x="110" y="305"/><ellipse cx="125" cy="321" fill="#ADD1B2" rx="11" ry="11" style="stroke:#A80036;stroke-width:1.0;"/><path d="M121.5313,315.2813 L121.5313,314.875 L129.0469,314.875 L129.7656,317.1406 L128.5938,317.5938 Q127.9063,316.2656 127.3125,315.7734 Q126.7188,315.2813 125.9844,315.2813 L124.125,315.2813 Q124.125,315.2813 124.2578,315.4141 Q124.3906,315.5469 124.3906,315.8125 L124.3906,319.9219 L125.4531,319.9219 Q126.1094,319.9219 126.4141,319.5938 Q126.7188,319.2656 126.7188,318.5938 L126.7188,318.2031 L128.1094,318.2031 L128.1094,322.1094 L126.7188,322.1094 L126.7188,321.8438 Q126.7188,321.125 126.4141,320.7266 Q126.1094,320.3281 125.4531,320.3281 L124.5313,320.3281 L124.5313,325.2969 Q124.5313,325.5625 124.6953,325.6953 Q124.8594,325.8281 124.8594,325.8281 L125.8438,325.8281 Q126.8438,325.8281 127.5391,325.2656 Q128.2344,324.7031 128.75,323.1875 L129.9688,323.6406 L129.2344,326.2344 L121.4688,326.2344 L121.4688,325.8281 L121.8594,325.8281 Q122.2031,325.8281 122.3359,325.6953 Q122.4688,325.5625 122.4688,325.2969 L122.4688,315.8125 Q122.4688,315.5469 122.3359,315.4141 Q122.2031,315.2813 121.8594,315.2813 L121.5313,315.2813 Z " fill="#000000"/><text fill="#000000" font-family="sans-serif" font-size="12" lengthAdjust="spacing" textLength="36" x="139" y="326.5576">博士生</text><line style="stroke:#A80036;stroke-width:1.5;" x1="111" x2="177" y1="337" y2="337"/><text fill="#000000" font-family="sans-serif" font-size="11" lengthAdjust="spacing" textLength="44" x="116" y="353.606">assistant</text><!--MD5=[266b7343af9d851974b7e3f5c0f9509e]
class undergraduate--><rect codeLine="20" fill="#FEFECE" filter="url(#fds60zjn2ocad)" height="55.0229" id="undergraduate" style="stroke:#A80036;stroke-width:1.5;" width="68" x="161" y="163.5"/><ellipse cx="176" cy="179.5" fill="#ADD1B2" rx="11" ry="11" style="stroke:#A80036;stroke-width:1.0;"/><path d="M172.5313,173.7813 L172.5313,173.375 L180.0469,173.375 L180.7656,175.6406 L179.5938,176.0938 Q178.9063,174.7656 178.3125,174.2734 Q177.7188,173.7813 176.9844,173.7813 L175.125,173.7813 Q175.125,173.7813 175.2578,173.9141 Q175.3906,174.0469 175.3906,174.3125 L175.3906,178.4219 L176.4531,178.4219 Q177.1094,178.4219 177.4141,178.0938 Q177.7188,177.7656 177.7188,177.0938 L177.7188,176.7031 L179.1094,176.7031 L179.1094,180.6094 L177.7188,180.6094 L177.7188,180.3438 Q177.7188,179.625 177.4141,179.2266 Q177.1094,178.8281 176.4531,178.8281 L175.5313,178.8281 L175.5313,183.7969 Q175.5313,184.0625 175.6953,184.1953 Q175.8594,184.3281 175.8594,184.3281 L176.8438,184.3281 Q177.8438,184.3281 178.5391,183.7656 Q179.2344,183.2031 179.75,181.6875 L180.9688,182.1406 L180.2344,184.7344 L172.4688,184.7344 L172.4688,184.3281 L172.8594,184.3281 Q173.2031,184.3281 173.3359,184.1953 Q173.4688,184.0625 173.4688,183.7969 L173.4688,174.3125 Q173.4688,174.0469 173.3359,173.9141 Q173.2031,173.7813 172.8594,173.7813 L172.5313,173.7813 Z " fill="#000000"/><text fill="#000000" font-family="sans-serif" font-size="12" lengthAdjust="spacing" textLength="36" x="190" y="185.0576">本科生</text><line style="stroke:#A80036;stroke-width:1.5;" x1="162" x2="228" y1="195.5" y2="195.5"/><text fill="#000000" font-family="sans-serif" font-size="11" lengthAdjust="spacing" textLength="26" x="167" y="212.106">major</text><!--MD5=[855616e0627c8d61e36b6971d16f3620]
link student to postgraduate--><path codeLine="24" d="M146.53,77.09 C135.1,100.76 119.94,132.16 108.5,155.84 " fill="none" id="student-postgraduate" style="stroke:#A80036;stroke-width:1.0;"/><text fill="#000000" font-family="sans-serif" font-size="13" lengthAdjust="spacing" textLength="21" x="133" y="122.8979">ISA</text><!--MD5=[68cc0c3ecc736c5968f9aa83d0dd169f]
link student to undergraduate--><path codeLine="25" d="M170.42,77.09 C176.15,103.39 183.95,139.23 189.21,163.42 " fill="none" id="student-undergraduate" style="stroke:#A80036;stroke-width:1.0;"/><text fill="#000000" font-family="sans-serif" font-size="13" lengthAdjust="spacing" textLength="21" x="181" y="122.8979">ISA</text><!--MD5=[d8f1ad20c78acadea3772987007c80bd]
link postgraduate to phd--><path codeLine="26" d="M104.72,226.13 C113.74,250.32 125.68,282.34 134.01,304.71 " fill="none" id="postgraduate-phd" style="stroke:#A80036;stroke-width:1.0;"/><text fill="#000000" font-family="sans-serif" font-size="13" lengthAdjust="spacing" textLength="21" x="124" y="271.8979">ISA</text><!--MD5=[413b050c196758fc592a47dc39f5118f]
link postgraduate to master--><path codeLine="27" d="M79.52,226.13 C70.68,250.32 58.97,282.34 50.79,304.71 " fill="none" id="postgraduate-master" style="stroke:#A80036;stroke-width:1.0;"/><text fill="#000000" font-family="sans-serif" font-size="13" lengthAdjust="spacing" textLength="21" x="70" y="271.8979">ISA</text><!--MD5=[4cc3b4e3bccf76902c1bbc081fc91215]
@startuml DatabaseExample
hide empty members
entity student as "学生"{
    **stuId**
    stuName
}

entity postgraduate as "研究生"{
    group
    teacher
}

entity master as "硕士生"{
    type
}

entity phd as "博士生"{
    assistant
}

entity undergraduate as "本科生"{
    major
}

student - - postgraduate : ISA
student - - undergraduate : ISA
postgraduate - - phd : ISA
postgraduate - - master : ISA
@enduml

PlantUML version 1.2021.7(Sun May 23 20:40:07 CST 2021)
(GPL source distribution)
Java Runtime: Java(TM) SE Runtime Environment
JVM: Java HotSpot(TM) 64-Bit Server VM
Default Encoding: GBK
Language: zh
Country: CN
--></g></svg>